# xmcd
#
# Track frame offsets: 
#        150
#        27855
#        58770
#        81578
#        99712
#        129556
#        157799
#        183779
#        202423
#        222971
#        246483
#        270141
#
# Disc length: 3909 seconds
#
# Revision: 1
# Processed by: cddbd v1.5.2PL0 Copyright (c) Steve Scherf et al.
# Submitted via: ExactAudioCopy v1.0b1
#
DISCID=aa0f430c
DTITLE=Various Artist - Jalapeno Funk Vol.1 [CD 1)
DYEAR=2007
DGENRE=Funk
TTITLE0=Soopasoul - Soopasoul Theme
TTITLE1=Telesfor - Twos (Busy Bees Boogie Mix)
TTITLE2=Kraak and Smaak - Funk Ass Rotator feat. Ro Krom
TTITLE3=Skeewiff - Triumph Stag
TTITLE4=Soopasoul - Brand Nu
TTITLE5=B-Team - Not Crazy
TTITLE6=Rhibosome - Impulse (Flow Dynamics Remix)
TTITLE7=Kraak and Smaak - Mad As Hell
TTITLE8=Sneaky Fox - Broke
TTITLE9=D'Stephanie - Rock The Disco
TTITLE10=Maelstrom and Napz - Spell It
TTITLE11=Flash Callahan - Do You Know The Truth
EXTD=
EXTT0=
EXTT1=
EXTT2=
EXTT3=
EXTT4=
EXTT5=
EXTT6=
EXTT7=
EXTT8=
EXTT9=
EXTT10=
EXTT11=
PLAYORDER=
